<svg width="30" height="23" viewBox="0 0 30 23" fill="none" xmlns="http://www.w3.org/2000/svg">
<path d="M14.8339 11.0756L14.8339 11.0758H14.8395H15.1568H15.2361V11.076L15.242 11.0756C16.6148 10.9949 17.909 10.4292 18.8797 9.37756C19.849 8.32752 20.3358 7.03195 20.2548 5.65442L20.2548 5.65424C20.0931 2.98733 17.991 0.801783 15.2391 0.720844L15.2391 0.720801H15.2361H14.7601V0.720617L14.7541 0.720984C12.0886 0.882525 9.90248 2.98302 9.82073 5.65584C9.74033 7.02924 10.2244 8.40443 11.1957 9.37751C12.0889 10.4312 13.3846 10.9951 14.8339 11.0756ZM18.9443 5.50561L18.9443 5.50562L18.9445 5.509C19.0989 7.59324 17.6354 9.37353 15.5443 9.76509H15.4741H15.4737H15.4732H15.4727H15.4723H15.4718H15.4713H15.4708H15.4704H15.4699H15.4694H15.4689H15.4684H15.468H15.4675H15.467H15.4665H15.466H15.4655H15.465H15.4645H15.464H15.4635H15.463H15.4625H15.462H15.4615H15.4609H15.4604H15.4599H15.4594H15.4589H15.4584H15.4578H15.4573H15.4568H15.4563H15.4557H15.4552H15.4547H15.4541H15.4536H15.4531H15.4525H15.452H15.4514H15.4509H15.4504H15.4498H15.4493H15.4487H15.4482H15.4476H15.447H15.4465H15.4459H15.4454H15.4448H15.4442H15.4437H15.4431H15.4425H15.442H15.4414H15.4408H15.4403H15.4397H15.4391H15.4385H15.4379H15.4374H15.4368H15.4362H15.4356H15.435H15.4344H15.4338H15.4332H15.4326H15.432H15.4315H15.4309H15.4303H15.4296H15.429H15.4284H15.4278H15.4272H15.4266H15.426H15.4254H15.4248H15.4242H15.4235H15.4229H15.4223H15.4217H15.4211H15.4204H15.4198H15.4192H15.4185H15.4179H15.4173H15.4166H15.416H15.4154H15.4147H15.4141H15.4135H15.4128H15.4122H15.4115H15.4109H15.4102H15.4096H15.4089H15.4083H15.4076H15.407H15.4063H15.4057H15.405H15.4043H15.4037H15.403H15.4023H15.4017H15.401H15.4003H15.3997H15.399H15.3983H15.3977H15.397H15.3963H15.3956H15.3949H15.3943H15.3936H15.3929H15.3922H15.3915H15.3908H15.3901H15.3895H15.3888H15.3881H15.3874H15.3867H15.386H15.3853H15.3846H15.3839H15.3832H15.3825H15.3818H15.3811H15.3804H15.3797H15.3789H15.3782H15.3775H15.3768H15.3761H15.3754H15.3747H15.3739H15.3732H15.3725H15.3718H15.3711H15.3703H15.3696H15.3689H15.3682H15.3674H15.3667H15.366H15.3652H15.3645H15.3638H15.363H15.3623H15.3616H15.3608H15.3601H15.3593H15.3586H15.3578H15.3571H15.3564H15.3556H15.3549H15.3541H15.3534H15.3526H15.3519H15.3511H15.3503H15.3496H15.3488H15.3481H15.3473H15.3466H15.3458H15.345H15.3443H15.3435H15.3427H15.342H15.3412H15.3404H15.3397H15.3389H15.3381H15.3373H15.3366H15.3358H15.335H15.3342H15.3335H15.3327H15.3319H15.3311H15.3303H15.3295H15.3288H15.328H15.3272H15.3264H15.3256H15.3248H15.324H15.3232H15.3224H15.3216H15.3208H15.3201H15.3193H15.3185H15.3177H15.3169H15.3161H15.3153H15.3145H15.3136H15.3128H15.312H15.3112H15.3104H15.3096H15.3088H15.308H15.3072H15.3064H15.3056H15.3047H15.3039H15.3031H15.3023H15.3015H15.3007H15.2998H15.299H15.2982H15.2974H15.2966H15.2957H15.2949H15.2941H15.2933H15.2924H15.2916H15.2908H15.2899H15.2891H15.2883H15.2874H15.2866H15.2858H15.2849H15.2841H15.2833H15.2824H15.2816H15.2808H15.2799H15.2791H15.2782H15.2774H15.2766H15.2757H15.2749H15.274H15.2732H15.2723H15.2715H15.2706H15.2698H15.2689H15.2681H15.2672H15.2664H15.2655H15.2647H15.2638H15.263H15.2621H15.2613H15.2604H15.2595H15.2587H15.2578H15.257H15.2561H15.2552H15.2544H15.2535H15.2527H15.2518H15.2509H15.2501H15.2492H15.2483H15.2475H15.2466H15.2457H15.2449H15.244H15.2431H15.2422H15.2414H15.2405H15.2396H15.2388H15.2379H15.237H15.2361H15.2352H15.2344H15.2335H15.2326H15.2317H15.2309H15.23H15.2291H15.2282H15.2273H15.2265H15.2256H15.2247H15.2238H15.2229H15.222H15.2211H15.2203H15.2194H15.2185H15.2176H15.2167H15.2158H15.2149H15.214H15.2132H15.2123H15.2114H15.2105H15.2096H15.2087H15.2078H15.2069H15.206H15.2051H15.2042H15.2033H15.2024H15.2015H15.2006H15.1997H15.1988H15.1979H15.197H15.1961H15.1952H15.1943H15.1934H15.1925H15.1916H15.1907H15.1898H15.1889H15.188H15.1871H15.1862H15.1853H15.1844H15.1835H15.1826H15.1817H15.1808H15.1799H15.179H15.178H15.1771H15.1762H15.1753H15.1744H15.1735H15.1726H15.1717H15.1708H15.1698H15.1689H15.168H15.1671H15.1662H15.1653H15.1644H15.1635H15.1625H15.1616H15.1607H15.1598H15.1589H15.158H15.157H15.1561H15.1552H15.1543H15.1534H15.1525H15.1515H15.1506H15.1497H15.1488H15.1479H15.1469H15.146H15.1451H15.1442H15.1433H15.1423H15.1414H15.1405H15.1396H15.1387H15.1377H15.1368H15.1359H15.135H15.134H15.1331H15.1322H15.1313H15.1304H15.1294H15.1285H15.1276H15.1267H15.1257H15.1248H15.1239H15.123H15.122H15.1211H15.1202H15.1193H15.1183H15.1174H15.1165H15.1155H15.1146H15.1137H15.1128H15.1118H15.1109H15.11H15.1091H15.1081H15.1072H15.1063H15.1053H15.1044H15.1035H15.1026H15.1016H15.1007H15.0998H15.0988H15.0979H15.097H15.0961H15.0951H15.0942H15.0933H15.0923H15.0914H15.0905H15.0896H15.0886H15.0877H15.0868H15.0858H15.0849H15.084H15.083H15.0821H15.0812H15.0803H15.0793H15.0784H15.0775H14.9188H14.7601H14.7592H14.7583H14.7573H14.7564H14.7555H14.7546H14.7537H14.7527H14.7518H14.7509H14.75H14.7491H14.7482H14.7473H14.7464H14.7455H14.7446H14.7437H14.7428H14.7419H14.741H14.7401H14.7392H14.7383H14.7374H14.7365H14.7357H14.7348H14.7339H14.733H14.7321H14.7313H14.7304H14.7295H14.7286H14.7278H14.7269H14.726H14.7252H14.7243H14.7235H14.7226H14.7217H14.7209H14.72H14.7192H14.7183H14.7175H14.7166H14.7158H14.7149H14.7141H14.7132H14.7124H14.7115H14.7107H14.7099H14.709H14.7082H14.7074H14.7065H14.7057H14.7049H14.704H14.7032H14.7024H14.7016H14.7007H14.6999H14.6991H14.6983H14.6975H14.6966H14.6958H14.695H14.6942H14.6934H14.6926H14.6918H14.691H14.6901H14.6893H14.6885H14.6877H14.6869H14.6861H14.6853H14.6845H14.6837H14.6829H14.6821H14.6814H14.6806H14.6798H14.679H14.6782H14.6774H14.6766H14.6758H14.6751H14.6743H14.6735H14.6727H14.6719H14.6711H14.6704H14.6696H14.6688H14.668H14.6673H14.6665H14.6657H14.665H14.6642H14.6634H14.6627H14.6619H14.6611H14.6604H14.6596H14.6588H14.6581H14.6573H14.6565H14.6558H14.655H14.6543H14.6535H14.6528H14.652H14.6513H14.6505H14.6498H14.649H14.6483H14.6475H14.6468H14.646H14.6453H14.6445H14.6438H14.643H14.6423H14.6415H14.6408H14.6401H14.6393H14.6386H14.6378H14.6371H14.6364H14.6356H14.6349H14.6342H14.6334H14.6327H14.632H14.6312H14.6305H14.6298H14.629H14.6283H14.6276H14.6269H14.6261H14.6254H14.6247H14.624H14.6232H14.6225H14.6218H14.6211H14.6203H14.6196H14.6189H14.6182H14.6175H14.6167H14.616H14.6153H14.6146H14.6139H14.6131H14.6124H14.6117H14.611H14.6103H14.6096H14.6089H14.6081H14.6074H14.6067H14.606H14.6053H14.6046H14.6039H14.6032H14.6025H14.6018H14.601H14.6003H14.5996H14.5989H14.5982H14.5975H14.5968H14.5961H14.5954H14.5947H14.594H14.5933H14.5926H14.5919H14.5912H14.5905H14.5898H14.5891H14.5883H14.5876H14.5869H14.5862H14.5855H14.5848H14.5841H14.5834H14.5827H14.582H14.5813H14.5806H14.5799H14.5792H14.5785H14.5778H14.5771H14.5764H14.5757H14.575H14.5743H14.5736H14.5729H14.5722H14.5716H14.5709H14.5702H14.5695H14.5688H14.5681H14.5674H14.5667H14.566H14.5653H14.5646H14.5639H14.5632H14.5625H14.5618H14.5611H14.5604H14.5597H14.559H14.5583H14.5576H14.5569H14.5562H14.5555H14.5548H14.5541H14.5534H14.5527H14.552H14.5513H14.5506H14.5499H14.5492H14.5485H14.5478H14.5471H14.5464H14.5457H14.545H14.5443H14.5436H14.5429H14.5422H14.5415H14.5408H14.5401H14.5394H14.5387H14.538H14.5373H14.5366H14.5359H14.5352H14.5345H14.5338H14.5331H14.5324H14.5317H14.531H14.5303H14.5296H14.5289H14.5282H14.5275H14.5268H14.5261H14.5254H14.5247H14.5239H14.5232H14.5225H14.5218H14.5211H14.5204H14.5197H14.519H14.5183H14.5176H14.5168H14.5161H14.5154H14.5147H14.514H14.5133H14.5126H14.5119H14.5111H14.5104H14.5097H14.509H14.5083H14.5076H14.5068H14.5061H14.5054H14.5047H14.504H14.5032H14.5025H14.5018H14.5011H14.5003H14.4996H14.4989H14.4982H14.4974H14.4967H14.496H14.4953H14.4945H14.4938H14.4931H14.4923H14.4916H14.4909H14.4901H14.4894H14.4887H14.4879H14.4872H14.4865H14.4857H14.485H14.4843H14.4835H14.4828H14.482H14.4813H14.4805H14.4798H14.4791H14.4783H14.4776H14.4768H14.4761H14.4753H14.4746H14.4738H14.4731H14.4723H14.4716H14.4708H14.4701H14.4693H14.4685H14.4678H14.467H14.4663H14.4655H14.4647H14.464H14.4632H14.4625H14.4617H14.4609H14.4602H14.4594H14.4586H14.4578H14.4571H14.4563H14.4555H14.4548H14.454H14.4532H14.4524H14.4516H14.4509H14.4501H14.4493H14.4485H14.4477H14.447H14.4462H14.4454H14.4446H14.4438H14.443H14.4422H14.4414H14.4406H14.4398H14.439H14.4382H14.4374H14.4366H14.4358H14.435H14.4342H14.4334H14.4326H14.4318H14.431H14.4302H14.4294H14.4286H14.4278H14.4269H14.4261H14.4253H14.4245H14.4237H14.4228H14.422H14.4212H14.4204H14.4195H14.4187H14.4179H14.417H14.4162H14.4154H14.4145H14.4137H14.4129H14.412H14.4112H14.4103H14.4095H14.4087H14.4078H14.407H14.4061H14.4053H14.4044H14.4036H14.4027H14.4018H14.401H14.4001H14.3993H14.3984H14.3975H14.3967H14.3958H14.3949H14.3941H14.3932H14.3923H14.3914H14.3906H14.3897H14.3888H14.3879H14.387H14.3861H14.3853H14.3844H14.3835H14.3826H14.3817H14.3808H14.3799H14.379H14.3781H14.3772H14.3763H14.3754H14.3745H14.3736H14.3727H14.3717H14.3708H14.3699H14.369H14.3681H14.3672H14.3662H14.3653H14.3644H14.3634H14.2144C12.2038 9.37383 10.7397 7.59534 10.8929 5.51127C11.1262 3.57625 12.7526 1.95011 14.764 1.7935H14.9188H15.2323C17.246 1.95029 18.8672 3.57736 18.9443 5.50561Z" fill="#850E10" stroke="#850E10" stroke-width="0.2"/>
<path d="M21.6425 11.7506L21.4593 11.7872L21.5914 11.9193C21.7163 12.0442 21.8608 12.1474 21.9974 12.245L22.0007 12.2473C22.1407 12.3474 22.2726 12.4419 22.3848 12.554L22.414 12.5833H22.4555H22.4564H22.4573H22.4582H22.4592H22.4601H22.461H22.4619H22.4628H22.4638H22.4647H22.4656H22.4665H22.4674H22.4683H22.4692H22.4701H22.471H22.4719H22.4728H22.4737H22.4746H22.4755H22.4764H22.4773H22.4782H22.479H22.4799H22.4808H22.4817H22.4826H22.4835H22.4843H22.4852H22.4861H22.4869H22.4878H22.4887H22.4896H22.4904H22.4913H22.4921H22.493H22.4939H22.4947H22.4956H22.4964H22.4973H22.4981H22.499H22.4998H22.5007H22.5015H22.5024H22.5032H22.5041H22.5049H22.5057H22.5066H22.5074H22.5082H22.5091H22.5099H22.5107H22.5116H22.5124H22.5132H22.514H22.5149H22.5157H22.5165H22.5173H22.5181H22.519H22.5198H22.5206H22.5214H22.5222H22.523H22.5238H22.5246H22.5254H22.5263H22.5271H22.5279H22.5287H22.5295H22.5303H22.5311H22.5319H22.5326H22.5334H22.5342H22.535H22.5358H22.5366H22.5374H22.5382H22.539H22.5398H22.5405H22.5413H22.5421H22.5429H22.5437H22.5444H22.5452H22.546H22.5468H22.5476H22.5483H22.5491H22.5499H22.5506H22.5514H22.5522H22.5529H22.5537H22.5545H22.5552H22.556H22.5568H22.5575H22.5583H22.559H22.5598H22.5606H22.5613H22.5621H22.5628H22.5636H22.5643H22.5651H22.5658H22.5666H22.5673H22.5681H22.5688H22.5696H22.5703H22.5711H22.5718H22.5726H22.5733H22.5741H22.5748H22.5755H22.5763H22.577H22.5777H22.5785H22.5792H22.58H22.5807H22.5814H22.5822H22.5829H22.5836H22.5844H22.5851H22.5858H22.5866H22.5873H22.588H22.5887H22.5895H22.5902H22.5909H22.5916H22.5924H22.5931H22.5938H22.5945H22.5953H22.596H22.5967H22.5974H22.5981H22.5989H22.5996H22.6003H22.601H22.6017H22.6024H22.6032H22.6039H22.6046H22.6053H22.606H22.6067H22.6074H22.6082H22.6089H22.6096H22.6103H22.611H22.6117H22.6124H22.6131H22.6138H22.6146H22.6153H22.616H22.6167H22.6174H22.6181H22.6188H22.6195H22.6202H22.6209H22.6216H22.6223H22.623H22.6237H22.6244H22.6251H22.6258H22.6265H22.6272H22.6279H22.6287H22.6294H22.6301H22.6308H22.6315H22.6322H22.6329H22.6336H22.6343H22.635H22.6357H22.6364H22.6371H22.6378H22.6385H22.6392H22.6399H22.6406H22.6412H22.6419H22.6426H22.6433H22.644H22.6447H22.6454H22.6461H22.6468H22.6475H22.6482H22.6489H22.6496H22.6503H22.651H22.6517H22.6524H22.6531H22.6538H22.6545H22.6552H22.6559H22.6566H22.6573H22.658H22.6587H22.6594H22.6601H22.6608H22.6615H22.6622H22.6629H22.6636H22.6643H22.665H22.6657H22.6664H22.6671H22.6678H22.6685H22.6692H22.6699H22.6706H22.6713H22.672H22.6727H22.6734H22.6741H22.6748H22.6755H22.6762H22.6769H22.6776H22.6783H22.679H22.6797H22.6804H22.6811H22.6818H22.6825H22.6832H22.6839H22.6846H22.6853H22.686H22.6867H22.6874H22.6881H22.6888H22.6895H22.6902H22.6909H22.6916H22.6924H22.6931H22.6938H22.6945H22.6952H22.6959H22.6966H22.6973H22.698H22.6987H22.6995H22.7002H22.7009H22.7016H22.7023H22.703H22.7037H22.7045H22.7052H22.7059H22.7066H22.7073H22.708H22.7088H22.7095H22.7102H22.7109H22.7116H22.7124H22.7131H22.7138H22.7145H22.7153H22.716H22.7167H22.7174H22.7182H22.7189H22.7196H22.7203H22.7211H22.7218H22.7225H22.7233H22.724H22.7247H22.7255H22.7262H22.7269H22.7277H22.7284H22.7291H22.7299H22.7306H22.7313H22.7321H22.7328H22.7336H22.7343H22.735H22.7358H22.7365H22.7373H22.738H22.7388H22.7395H22.7403H22.741H22.7418H22.7425H22.7433H22.744H22.7448H22.7455H22.7463H22.7471H22.7478H22.7486H22.7493H22.7501H22.7508H22.7516H22.7524H22.7531H22.7539H22.7547H22.7554H22.7562H22.757H22.7577H22.7585H22.7593H22.7601H22.7608H22.7616H22.7624H22.7632H22.7639H22.7647H22.7655H22.7663H22.7671H22.7679H22.7686H22.7694H22.7702H22.771H22.7718H22.7726H22.7734H22.7742H22.775H22.7758H22.7766H22.7774H22.7782H22.779H22.7798H22.7806H22.7814H22.7822H22.783H22.7838H22.7846H22.7854H22.7862H22.787H22.7878H22.7887H22.7895H22.7903H22.7911H22.7919H22.7928H22.7936H22.7944H22.7952H22.7961H22.7969H22.7977H22.7985H22.7994H22.8002H22.801H22.8019H22.8027H22.8036H22.8044H22.8052H22.8061H22.8069H22.8078H22.8086H22.8095H22.8103H22.8112H22.812H22.8129H22.8138H22.8146H22.8155H22.8163H22.8172H22.8181H22.8189H22.8198H22.8207H22.8215H22.8224H22.8233H22.8242H22.825H22.8259H22.8268H22.8277H22.8286H22.8295H22.8303H22.8312H22.8321H22.833H22.8339H22.8348H22.8357H22.8366H22.8375H22.8384H22.8393H22.8402H22.8411H22.842H22.8429H22.8439H22.8448H22.8457H22.8466H22.8475H22.8484H22.8494H22.8503H22.8512H22.8521H24.8355C26.7651 12.5833 28.385 14.1267 28.385 16.1327V16.48C27.3768 17.2446 26.2183 17.704 25.0603 17.8583L24.9736 17.8699V17.9575V17.9584V17.9593V17.9603V17.9612V17.9621V17.9631V17.964V17.965V17.9659V17.9669V17.9678V17.9688V17.9697V17.9707V17.9716V17.9726V17.9735V17.9745V17.9755V17.9764V17.9774V17.9784V17.9793V17.9803V17.9813V17.9822V17.9832V17.9842V17.9852V17.9861V17.9871V17.9881V17.9891V17.9901V17.9911V17.9921V17.9931V17.994V17.995V17.996V17.997V17.998V17.999V18V18.001V18.002V18.0031V18.0041V18.0051V18.0061V18.0071V18.0081V18.0091V18.0101V18.0112V18.0122V18.0132V18.0142V18.0152V18.0163V18.0173V18.0183V18.0194V18.0204V18.0214V18.0224V18.0235V18.0245V18.0256V18.0266V18.0276V18.0287V18.0297V18.0308V18.0318V18.0329V18.0339V18.035V18.036V18.0371V18.0381V18.0392V18.0402V18.0413V18.0423V18.0434V18.0445V18.0455V18.0466V18.0476V18.0487V18.0498V18.0508V18.0519V18.053V18.054V18.0551V18.0562V18.0573V18.0583V18.0594V18.0605V18.0616V18.0627V18.0637V18.0648V18.0659V18.067V18.0681V18.0692V18.0702V18.0713V18.0724V18.0735V18.0746V18.0757V18.0768V18.0779V18.079V18.0801V18.0812V18.0823V18.0834V18.0845V18.0856V18.0867V18.0878V18.0889V18.09V18.0911V18.0922V18.0933V18.0944V18.0955V18.0966V18.0977V18.0988V18.1V18.1011V18.1022V18.1033V18.1044V18.1055V18.1066V18.1078V18.1089V18.11V18.1111V18.1122V18.1134V18.1145V18.1156V18.1167V18.1179V18.119V18.1201V18.1212V18.1224V18.1235V18.1246V18.1258V18.1269V18.128V18.1292V18.1303V18.1314V18.1326V18.1337V18.1348V18.136V18.1371V18.1382V18.1394V18.1405V18.1416V18.1428V18.1439V18.1451V18.1462V18.1473V18.1485V18.1496V18.1508V18.1519V18.1531V18.1542V18.1553V18.1565V18.1576V18.1588V18.1599V18.1611V18.1622V18.1634V18.1645V18.1657V18.1668V18.168V18.1691V18.1703V18.1714V18.1726V18.1737V18.1749V18.176V18.1772V18.1783V18.1795V18.1806V18.1818V18.183V18.1841V18.1853V18.1864V18.1876V18.1887V18.1899V18.1911V18.1922V18.1934V18.1945V18.1957V18.1968V18.198V18.1992V18.2003V18.2015V18.2026V18.2038V18.205V18.2061V18.2073V18.2084V18.2096V18.2108V18.2119V18.2131V18.2142V18.2154V18.2166V18.2177V18.2189V18.22V18.2212V18.2224V18.2235V18.2247V18.2259V18.227V18.2282V18.2293V18.2305V18.2317V18.2328V18.234V18.2351V18.2363V18.2375V18.2386V18.2398V18.241V18.2421V18.2433V18.2444V18.2456V18.2468V18.2479V18.2491V18.2503V18.2514V18.2526V18.2537V18.2549V18.2561V18.2572V18.2584V18.2595V18.2607V18.2619V18.263V18.2642V18.2653V18.2665V18.2677V18.2688V18.27V18.2711V18.2723V18.2735V18.2746V18.2758V18.2769V18.2781V18.2792V18.2804V18.2816V18.2827V18.2839V18.285V18.2862V18.2873V18.2885V18.2896V18.2908V18.292V18.2931V18.2943V18.2954V18.2966V18.2977V18.2989V18.3V18.3012V18.3023V18.3035V18.3046V18.3058V18.3069V18.3081V18.3092V18.3104V18.3115V18.3127V18.3138V18.3149V18.3161V18.3172V18.3184V18.3195V18.3207V18.3218V18.323V18.3241V18.3252V18.3264V18.3275V18.3287V18.3298V18.3309V18.3321V18.3332V18.3343V18.3355V18.3366V18.3377V18.3389V18.34V18.3411V18.3423V18.3434V18.3445V18.3457V18.3468V18.3479V18.3491V18.3502V18.3513V18.3524V18.3536V18.3547V18.3558V18.3569V18.358V18.3592V18.3603V18.3614V18.3625V18.3636V18.3648V18.3659V18.367V18.3681V18.3692V18.3703V18.3715V18.3726V18.3737V18.3748V18.3759V18.377V18.3781V18.3792V18.3803V18.3814V18.3825V18.3836V18.3847V18.3858V18.3869V18.388V18.3891V18.3902V18.3913V18.3924V18.3935V18.3946V18.3957V18.3968V18.3979V18.399V18.4001V18.4011V18.4022V18.4033V18.4044V18.4055V18.4066V18.4076V18.4087V18.4098V18.4109V18.412V18.413V18.4141V18.4152V18.4162V18.4173V18.4184V18.4195V18.4205V18.4216V18.4227V18.4237V18.4248V18.4258V18.4269V18.428V18.429V18.4301V18.4311V18.4322V18.4332V18.4343V18.4353V18.4364V18.4374V18.4385V18.4395V18.4406V18.4416V18.4427V18.4437V18.4447V18.4458V18.4468V18.4478V18.4489V18.4499V18.4509V18.452V18.453V18.454V18.4551V18.4561V18.4571V18.4581V18.4591V18.4602V18.4612V18.4622V18.4632V18.4642V18.4652V18.4662V18.4672V18.4683V18.4693V18.4703V18.4713V18.4723V18.4733V18.4743V18.4753V18.4762V18.4772V18.4782V18.4792V18.4802V18.4812V18.4822V18.4832V18.4841V18.4851V18.4861V18.4871V18.4881V18.489V18.49V18.491V18.4919V18.4929V18.4939V18.4948V18.4958V18.4968V18.4977V18.4987V18.4996V18.5006V18.5015V18.5025V18.5034V18.5044V18.5053V18.5063V18.5072V18.5082V18.5091V18.51V18.511V18.5119V18.5128V18.7508V18.8679L25.0891 18.8496C26.6119 18.6092 27.9772 18.0475 29.1821 17.0835L29.1825 17.084L29.1904 17.0762L29.3491 16.9175L29.3783 16.8882V16.8468V15.9741C29.3783 13.6158 27.3478 11.5899 24.8355 11.5899H22.8521C22.4456 11.5899 22.0407 11.6709 21.6474 11.7496L21.6425 11.7506Z" fill="#850E10" stroke="#850E10" stroke-width="0.2"/>
<path d="M20.3735 7.71852L20.3735 7.71852L20.3735 7.71944C20.292 9.83728 22.0034 11.5559 24.0499 11.3932C25.7662 11.3107 27.1549 9.92192 27.2374 8.20566C27.3998 6.16337 25.6853 4.36686 23.5613 4.52936C21.8444 4.61187 20.4553 6.00147 20.3735 7.71852ZM21.4459 8.11372L21.446 8.11372L21.4456 8.10949C21.2939 6.66888 22.5071 5.44619 24.0379 5.52238C25.2565 5.59886 26.2474 6.58975 26.3238 7.80839C26.3997 9.25607 25.1796 10.4761 23.732 10.4002C22.5131 10.3238 21.5221 9.33262 21.4459 8.11372Z" fill="#850E10" stroke="#850E10" stroke-width="0.2"/>
<path d="M6.4918 19.8615V19.9151L6.53633 19.9447L6.77159 20.1016C9.16865 21.9385 11.9659 22.897 15.0807 22.897C18.1145 22.897 20.9099 21.9396 23.3056 20.1054L23.4557 20.0303L23.511 20.0027V19.9409V18.5922C23.511 14.7281 20.3714 11.6693 16.5881 11.6693H13.4147C9.63143 11.6693 6.4918 14.7281 6.4918 18.5922V19.8615ZM22.2003 18.5128V19.335C20.0847 20.8885 17.5825 21.6656 15.0014 21.6656C12.4223 21.6656 9.91969 20.8114 7.8025 19.2557V18.5128C7.8025 15.3946 10.3758 12.8213 13.494 12.8213H16.5088C19.627 12.8213 22.2003 15.3946 22.2003 18.5128Z" fill="#850E10" stroke="#850E10" stroke-width="0.2"/>
<path d="M7.54163 12.5833H7.58305L7.61234 12.554C7.85194 12.3144 8.07912 12.0884 8.37971 11.9381L8.6404 11.8077L8.3546 11.7506L8.3497 11.7496C7.95636 11.6709 7.55155 11.5899 7.14495 11.5899H5.16156C2.64692 11.5899 0.61875 13.6181 0.61875 16.1327V17.0054V17.0469L0.648039 17.0762L0.806711 17.2348L0.806276 17.2353L0.814952 17.2422C2.0206 18.2067 3.46534 18.7678 4.90711 19.0081L5.02355 19.0276V18.9095V18.6715V18.6706V18.6696V18.6687V18.6678V18.6668V18.6659V18.6649V18.664V18.6631V18.6621V18.6612V18.6602V18.6593V18.6583V18.6574V18.6564V18.6554V18.6545V18.6535V18.6525V18.6516V18.6506V18.6496V18.6487V18.6477V18.6467V18.6458V18.6448V18.6438V18.6428V18.6418V18.6409V18.6399V18.6389V18.6379V18.6369V18.6359V18.6349V18.6339V18.6329V18.6319V18.6309V18.6299V18.6289V18.6279V18.6269V18.6259V18.6249V18.6239V18.6229V18.6219V18.6209V18.6198V18.6188V18.6178V18.6168V18.6158V18.6148V18.6137V18.6127V18.6117V18.6106V18.6096V18.6086V18.6076V18.6065V18.6055V18.6045V18.6034V18.6024V18.6013V18.6003V18.5992V18.5982V18.5972V18.5961V18.5951V18.594V18.593V18.5919V18.5909V18.5898V18.5888V18.5877V18.5866V18.5856V18.5845V18.5835V18.5824V18.5813V18.5803V18.5792V18.5781V18.5771V18.576V18.5749V18.5739V18.5728V18.5717V18.5706V18.5696V18.5685V18.5674V18.5663V18.5652V18.5642V18.5631V18.562V18.5609V18.5598V18.5587V18.5576V18.5566V18.5555V18.5544V18.5533V18.5522V18.5511V18.55V18.5489V18.5478V18.5467V18.5456V18.5445V18.5434V18.5423V18.5412V18.5401V18.539V18.5379V18.5368V18.5357V18.5346V18.5335V18.5323V18.5312V18.5301V18.529V18.5279V18.5268V18.5257V18.5246V18.5234V18.5223V18.5212V18.5201V18.519V18.5178V18.5167V18.5156V18.5145V18.5134V18.5122V18.5111V18.51V18.5089V18.5077V18.5066V18.5055V18.5043V18.5032V18.5021V18.501V18.4998V18.4987V18.4976V18.4964V18.4953V18.4942V18.493V18.4919V18.4907V18.4896V18.4885V18.4873V18.4862V18.485V18.4839V18.4828V18.4816V18.4805V18.4793V18.4782V18.4771V18.4759V18.4748V18.4736V18.4725V18.4713V18.4702V18.469V18.4679V18.4667V18.4656V18.4644V18.4633V18.4621V18.461V18.4598V18.4587V18.4575V18.4564V18.4552V18.4541V18.4529V18.4518V18.4506V18.4495V18.4483V18.4472V18.446V18.4449V18.4437V18.4425V18.4414V18.4402V18.4391V18.4379V18.4368V18.4356V18.4344V18.4333V18.4321V18.431V18.4298V18.4287V18.4275V18.4263V18.4252V18.424V18.4229V18.4217V18.4205V18.4194V18.4182V18.4171V18.4159V18.4147V18.4136V18.4124V18.4113V18.4101V18.4089V18.4078V18.4066V18.4054V18.4043V18.4031V18.402V18.4008V18.3996V18.3985V18.3973V18.3961V18.395V18.3938V18.3927V18.3915V18.3903V18.3892V18.388V18.3868V18.3857V18.3845V18.3834V18.3822V18.381V18.3799V18.3787V18.3776V18.3764V18.3752V18.3741V18.3729V18.3717V18.3706V18.3694V18.3683V18.3671V18.3659V18.3648V18.3636V18.3625V18.3613V18.3601V18.359V18.3578V18.3567V18.3555V18.3544V18.3532V18.352V18.3509V18.3497V18.3486V18.3474V18.3463V18.3451V18.3439V18.3428V18.3416V18.3405V18.3393V18.3382V18.337V18.3359V18.3347V18.3336V18.3324V18.3313V18.3301V18.3289V18.3278V18.3266V18.3255V18.3243V18.3232V18.3221V18.3209V18.3198V18.3186V18.3175V18.3163V18.3152V18.314V18.3129V18.3117V18.3106V18.3094V18.3083V18.3072V18.306V18.3049V18.3037V18.3026V18.3015V18.3003V18.2992V18.298V18.2969V18.2958V18.2946V18.2935V18.2924V18.2912V18.2901V18.289V18.2878V18.2867V18.2856V18.2844V18.2833V18.2822V18.281V18.2799V18.2788V18.2777V18.2765V18.2754V18.2743V18.2732V18.272V18.2709V18.2698V18.2687V18.2676V18.2664V18.2653V18.2642V18.2631V18.262V18.2609V18.2597V18.2586V18.2575V18.2564V18.2553V18.2542V18.2531V18.252V18.2509V18.2498V18.2487V18.2475V18.2464V18.2453V18.2442V18.2431V18.242V18.2409V18.2398V18.2387V18.2376V18.2366V18.2355V18.2344V18.2333V18.2322V18.2311V18.23V18.2289V18.2278V18.2267V18.2257V18.2246V18.2235V18.2224V18.2213V18.2202V18.2192V18.2181V18.217V18.2159V18.2149V18.2138V18.2127V18.2116V18.2106V18.2095V18.2084V18.2074V18.2063V18.2052V18.2042V18.2031V18.2021V18.201V18.1999V18.1989V18.1978V18.1968V18.1957V18.1947V18.1936V18.1926V18.1915V18.1905V18.1894V18.1884V18.1874V18.1863V18.1853V18.1842V18.1832V18.1822V18.1811V18.1801V18.1791V18.178V18.177V18.176V18.1749V18.1739V18.1729V18.1719V18.1708V18.1698V18.1688V18.1678V18.1668V18.1658V18.1648V18.1637V18.1627V18.1617V18.1607V18.1597V18.1587V18.1577V18.1567V18.1557V18.1547V18.1537V18.1527V18.1517V18.1507V18.1497V18.1488V18.1478V18.1468V18.1458V18.1448V18.1438V18.1429V18.1419V18.1409V18.1399V18.139V18.138V18.137V18.1361V18.1351V18.1341V18.1332V18.1322V18.1312V18.1303V18.1293V18.1284V18.1274V18.1265V18.1255V18.1246V18.1236V18.1227V18.1218V18.1208V18.1199V18.1189V18.118V18.1171V18.1161V18.0393L4.94932 18.0195C3.78187 17.7082 2.62041 17.2447 1.61211 16.48V16.0534C1.61211 14.1281 3.23051 12.5833 5.16156 12.5833H7.14495H7.14588H7.14681H7.14773H7.14866H7.14958H7.1505H7.15142H7.15233H7.15325H7.15416H7.15507H7.15598H7.15689H7.15779H7.1587H7.1596H7.1605H7.1614H7.1623H7.16319H7.16409H7.16498H7.16587H7.16676H7.16765H7.16853H7.16942H7.1703H7.17118H7.17206H7.17294H7.17381H7.17469H7.17556H7.17643H7.1773H7.17817H7.17904H7.1799H7.18077H7.18163H7.18249H7.18335H7.1842H7.18506H7.18591H7.18677H7.18762H7.18847H7.18932H7.19016H7.19101H7.19185H7.1927H7.19354H7.19438H7.19522H7.19605H7.19689H7.19772H7.19856H7.19939H7.20022H7.20105H7.20187H7.2027H7.20352H7.20435H7.20517H7.20599H7.20681H7.20763H7.20844H7.20926H7.21007H7.21089H7.2117H7.21251H7.21332H7.21413H7.21493H7.21574H7.21654H7.21734H7.21815H7.21895H7.21975H7.22054H7.22134H7.22214H7.22293H7.22372H7.22452H7.22531H7.2261H7.22688H7.22767H7.22846H7.22924H7.23003H7.23081H7.23159H7.23237H7.23315H7.23393H7.23471H7.23549H7.23626H7.23704H7.23781H7.23858H7.23935H7.24012H7.24089H7.24166H7.24243H7.2432H7.24396H7.24472H7.24549H7.24625H7.24701H7.24777H7.24853H7.24929H7.25005H7.2508H7.25156H7.25232H7.25307H7.25382H7.25458H7.25533H7.25608H7.25683H7.25758H7.25832H7.25907H7.25982H7.26056H7.26131H7.26205H7.26279H7.26354H7.26428H7.26502H7.26576H7.2665H7.26723H7.26797H7.26871H7.26945H7.27018H7.27092H7.27165H7.27238H7.27311H7.27385H7.27458H7.27531H7.27604H7.27677H7.27749H7.27822H7.27895H7.27968H7.2804H7.28113H7.28185H7.28257H7.2833H7.28402H7.28474H7.28546H7.28618H7.2869H7.28762H7.28834H7.28906H7.28978H7.2905H7.29121H7.29193H7.29265H7.29336H7.29408H7.29479H7.29551H7.29622H7.29693H7.29764H7.29836H7.29907H7.29978H7.30049H7.3012H7.30191H7.30262H7.30333H7.30404H7.30475H7.30545H7.30616H7.30687H7.30757H7.30828H7.30899H7.30969H7.3104H7.3111H7.31181H7.31251H7.31322H7.31392H7.31462H7.31533H7.31603H7.31673H7.31743H7.31814H7.31884H7.31954H7.32024H7.32094H7.32164H7.32234H7.32304H7.32374H7.32444H7.32514H7.32584H7.32654H7.32724H7.32794H7.32864H7.32934H7.33004H7.33073H7.33143H7.33213H7.33283H7.33353H7.33423H7.33492H7.33562H7.33632H7.33702H7.33771H7.33841H7.33911H7.33981H7.3405H7.3412H7.3419H7.3426H7.34329H7.34399H7.34469H7.34539H7.34608H7.34678H7.34748H7.34817H7.34887H7.34957H7.35027H7.35096H7.35166H7.35236H7.35306H7.35376H7.35445H7.35515H7.35585H7.35655H7.35725H7.35795H7.35865H7.35934H7.36004H7.36074H7.36144H7.36214H7.36284H7.36354H7.36424H7.36494H7.36564H7.36635H7.36705H7.36775H7.36845H7.36915H7.36985H7.37056H7.37126H7.37196H7.37267H7.37337H7.37407H7.37478H7.37548H7.37619H7.37689H7.3776H7.3783H7.37901H7.37972H7.38042H7.38113H7.38184H7.38255H7.38326H7.38397H7.38468H7.38539H7.3861H7.38681H7.38752H7.38823H7.38894H7.38965H7.39037H7.39108H7.39179H7.39251H7.39322H7.39394H7.39465H7.39537H7.39609H7.39681H7.39752H7.39824H7.39896H7.39968H7.4004H7.40112H7.40184H7.40257H7.40329H7.40401H7.40474H7.40546H7.40619H7.40691H7.40764H7.40836H7.40909H7.40982H7.41055H7.41128H7.41201H7.41274H7.41347H7.4142H7.41494H7.41567H7.41641H7.41714H7.41788H7.41861H7.41935H7.42009H7.42083H7.42157H7.42231H7.42305H7.42379H7.42454H7.42528H7.42602H7.42677H7.42752H7.42826H7.42901H7.42976H7.43051H7.43126H7.43201H7.43276H7.43352H7.43427H7.43503H7.43578H7.43654H7.4373H7.43805H7.43881H7.43957H7.44034H7.4411H7.44186H7.44263H7.44339H7.44416H7.44492H7.44569H7.44646H7.44723H7.448H7.44878H7.44955H7.45032H7.4511H7.45188H7.45265H7.45343H7.45421H7.45499H7.45577H7.45656H7.45734H7.45813H7.45891H7.4597H7.46049H7.46128H7.46207H7.46286H7.46366H7.46445H7.46525H7.46604H7.46684H7.46764H7.46844H7.46924H7.47004H7.47085H7.47165H7.47246H7.47327H7.47408H7.47489H7.4757H7.47651H7.47733H7.47814H7.47896H7.47978H7.4806H7.48142H7.48224H7.48306H7.48389H7.48471H7.48554H7.48637H7.4872H7.48803H7.48886H7.4897H7.49053H7.49137H7.49221H7.49305H7.49389H7.49473H7.49558H7.49642H7.49727H7.49812H7.49897H7.49982H7.50067H7.50153H7.50238H7.50324H7.5041H7.50496H7.50582H7.50668H7.50755H7.50842H7.50928H7.51015H7.51103H7.5119H7.51277H7.51365H7.51453H7.51541H7.51629H7.51717H7.51805H7.51894H7.51983H7.52072H7.52161H7.5225H7.52339H7.52429H7.52519H7.52608H7.52698H7.52789H7.52879H7.5297H7.5306H7.53151H7.53242H7.53334H7.53425H7.53517H7.53609H7.53701H7.53793H7.53885H7.53978H7.5407H7.54163Z" fill="#850E10" stroke="#850E10" stroke-width="0.2"/>
<path d="M2.76179 8.20496C2.84427 9.9213 4.23302 11.3101 5.94934 11.3927C7.99162 11.5551 9.78813 9.84051 9.62563 7.71653C9.54316 6.00019 8.1544 4.61138 6.43808 4.52882C4.39579 4.36641 2.59928 6.08097 2.76179 8.20496ZM3.67546 7.80781C3.75188 6.58914 4.74278 5.59825 5.96144 5.52183C7.40914 5.44592 8.62918 6.66594 8.55329 8.11364C8.47688 9.33233 7.48596 10.3232 6.26727 10.3997C4.81958 10.4755 3.59956 9.25551 3.67546 7.80781Z" fill="#850E10" stroke="#850E10" stroke-width="0.2"/>
</svg>
