<svg width="24" height="23" viewBox="0 0 24 23" fill="none" xmlns="http://www.w3.org/2000/svg">
<path d="M20.005 0.140869H4.16934C2.14081 0.140869 0.439453 1.84222 0.439453 3.87076V15.2567C0.439453 17.2853 2.14081 18.9866 4.16934 18.9866H19.9396C21.9681 18.9866 23.6695 17.2853 23.6695 15.2567V3.87076C23.7349 1.84222 22.0336 0.140869 20.005 0.140869ZM22.5571 15.2567C22.5571 16.6964 21.3792 17.8088 20.005 17.8088H4.16934C2.79517 17.8088 1.61731 16.6964 1.61731 15.2567V3.87076C1.61731 2.43115 2.79517 1.31873 4.16934 1.31873H19.9396C21.3792 1.31873 22.4916 2.49659 22.4916 3.87076V15.2567H22.5571Z" fill="#850E10"/>
<path d="M16.6026 8.45142L8.81563 4.00172C8.42301 3.80541 7.96496 3.80541 7.57234 4.00172C7.17972 4.19803 6.91797 4.65609 6.91797 5.11415V14.079C6.91797 14.537 7.17972 14.9297 7.57234 15.1914C7.76865 15.3223 7.96496 15.3877 8.2267 15.3877C8.42301 15.3877 8.68476 15.3223 8.88107 15.1914L16.6026 10.7417C16.9952 10.5454 17.257 10.0873 17.257 9.62928C17.1915 9.10579 16.9952 8.71317 16.6026 8.45142ZM16.0137 9.62928L8.29214 14.079H8.2267C8.16127 14.079 8.16127 14.0135 8.16127 14.0135V5.11415C8.16127 5.11415 8.16127 5.04871 8.2267 5.04871C8.2267 5.04871 8.2267 5.04871 8.29214 5.04871H8.35758L16.0137 9.49841C16.0137 9.49841 16.0791 9.49841 16.0791 9.56384C16.0791 9.62928 16.0137 9.62928 16.0137 9.62928Z" fill="#850E10"/>
<path d="M18.6968 20.6228H5.47861C5.02056 20.6228 4.5625 21.0154 4.5625 21.5389C4.5625 22.0624 4.95512 22.455 5.47861 22.455H18.7623C19.2203 22.455 19.6784 22.0624 19.6784 21.5389C19.6784 21.0154 19.2203 20.6228 18.6968 20.6228Z" fill="#850E10"/>
</svg>
